# xmcd
#
# Track frame offsets:
#	150
#	15900
#	33675
#	52425
#	73087
#	90850
#	103975
#	119100
#	131700
#	146250
#	160237
#	176737
#	195975
#
# Disc length: 2779 seconds
#
# Revision: 0
# Processed by: cddbd v1.5.2PL0 Copyright (c) Steve Scherf et al.
# Submitted via: EasyCDDAExtractor 12.0.4.1
#
DISCID=bb0ad90d
DTITLE=Various Artist - Larrikin Country Singles Collection
DYEAR=1994
DGENRE=Country
TTITLE0=The Dead Ringer Band - Power Of The Land
TTITLE1=Michael Gant - Hard Headed Womanm
TTITLE2=Cam Fischer and Stick 'Em Up - Never Was Much Of a Cowboy
TTITLE3=Reg Lindsay - Don't Act The Big Star With Me
TTITLE4=Pat Drummond - The Ballad Of Geordie Johnson
TTITLE5=Glass/Hamilton/Young - It's All Over Bar the Shouting
TTITLE6=Laurie Allen - Me 'n' Jack Daniels
TTITLE7=Big Red - Grandma's Country Party
TTITLE8=Eric Bogle - Plastic Paddy
TTITLE9=Robert Brock - Sunday Dinner
TTITLE10=Terry Bradford's Gospel Noir - The Young John Wayne
TTITLE11=Buddy England - When You Love Somebody
TTITLE12=Michael Fix - Country Towns
EXTD=
EXTT0=
EXTT1=
EXTT2=
EXTT3=
EXTT4=
EXTT5=
EXTT6=
EXTT7=
EXTT8=
EXTT9=
EXTT10=
EXTT11=
EXTT12=
PLAYORDER=
